SplineFontDB: 3.0
FontName: DSEG7Classic-Italic
FullName: DSEG7 Classic-Italic
FamilyName: DSEG7 Classic
Weight: Regular
Copyright: Created by Keshikan(https://twitter.com/keshinomi_88pro)\nwith FontForge 2.0 (http://fontforge.sf.net)
UComments: "2014-8-31: Created." 
Version: 0.2
ItalicAngle: -5
UnderlinePosition: -100
UnderlineWidth: 50
Ascent: 1000
Descent: 0
LayerCount: 2
Layer: 0 0 "+gMyXYgAA"  1
Layer: 1 0 "+Uk2XYgAA"  0
XUID: [1021 682 390630330 14528854]
FSType: 8
OS2Version: 0
OS2_WeightWidthSlopeOnly: 0
OS2_UseTypoMetrics: 1
CreationTime: 1409488158
ModificationTime: 1483780976
PfmFamily: 17
TTFWeight: 400
TTFWidth: 5
LineGap: 90
VLineGap: 0
OS2TypoAscent: 0
OS2TypoAOffset: 1
OS2TypoDescent: 0
OS2TypoDOffset: 1
OS2TypoLinegap: 90
OS2WinAscent: 0
OS2WinAOffset: 1
OS2WinDescent: 0
OS2WinDOffset: 1
HheadAscent: 0
HheadAOffset: 1
HheadDescent: 0
HheadDOffset: 1
OS2Vendor: 'PfEd'
MarkAttachClasses: 1
DEI: 91125
LangName: 1033 "Created by Keshikan+AAoA-with FontForge 2.0 (http://fontforge.sf.net)" "" "" "" "" "Version 0.2" "" "" "" "Keshikan(Twitter:@keshinomi_88pro)" "" "" "http://www.keshikan.net" "" "" "" "" "" "" "DSEG.7 12:34" 
Encoding: ISO8859-1
UnicodeInterp: none
NameList: Adobe Glyph List
DisplaySize: -24
AntiAlias: 1
FitToEm: 1
WinInfo: 0 24 9
BeginPrivate: 0
EndPrivate
TeXData: 1 0 -1005505 346030 173015 115343 513481 1048576 115343 783286 444596 497025 792723 393216 433062 380633 303038 157286 324010 404750 52429 2506097 1059062 262144
BeginChars: 256 67

StartChar: zero
Encoding: 48 48 0
Width: 816
VWidth: 200
Flags: HW
LayerCount: 2
Fore
SplineSet
90 45 m 1
 62 76 l 1
 98 490 l 1
 125 490 l 1
 129 485 l 1
 185 424 l 1
 157 107 l 1
 90 45 l 1
131 515 m 1
 127 510 l 1
 100 510 l 1
 136 924 l 1
 170 955 l 1
 226 893 l 1
 198 576 l 1
 131 515 l 1
185 969 m 1
 219 1000 l 1
 684 1000 l 1
 713 969 l 1
 645 907 l 1
 242 907 l 1
 185 969 l 1
684 485 m 1
 689 489 l 1
 716 489 l 1
 680 76 l 1
 646 45 l 1
 590 107 l 1
 618 424 l 1
 684 485 l 1
726 955 m 1
 754 924 l 1
 718 510 l 1
 691 510 l 1
 687 514 l 1
 631 575 l 1
 659 893 l 1
 726 955 l 1
631 31 m 1
 597 0 l 1
 132 0 l 1
 103 31 l 1
 171 93 l 1
 574 93 l 1
 631 31 l 1
EndSplineSet
EndChar

StartChar: eight
Encoding: 56 56 1
Width: 816
VWidth: 200
Flags: HW
LayerCount: 2
Fore
SplineSet
90 45 m 1
 62 76 l 1
 98 490 l 1
 125 490 l 1
 129 485 l 1
 185 424 l 1
 157 107 l 1
 90 45 l 1
131 515 m 1
 127 510 l 1
 100 510 l 1
 136 924 l 1
 170 955 l 1
 226 893 l 1
 198 576 l 1
 131 515 l 1
185 969 m 1
 219 1000 l 1
 684 1000 l 1
 713 969 l 1
 645 907 l 1
 242 907 l 1
 185 969 l 1
671 499 m 1
 620 453 l 1
 620 454 l 1
 188 454 l 1
 188 453 l 1
 144 500 l 1
 196 547 l 1
 196 546 l 1
 628 546 l 1
 671 499 l 1
684 485 m 1
 689 489 l 1
 716 489 l 1
 680 76 l 1
 646 45 l 1
 590 107 l 1
 618 424 l 1
 684 485 l 1
726 955 m 1
 754 924 l 1
 718 510 l 1
 691 510 l 1
 687 514 l 1
 631 575 l 1
 659 893 l 1
 726 955 l 1
631 31 m 1
 597 0 l 1
 132 0 l 1
 103 31 l 1
 171 93 l 1
 574 93 l 1
 631 31 l 1
EndSplineSet
EndChar

StartChar: one
Encoding: 49 49 2
Width: 816
VWidth: 200
Flags: HW
LayerCount: 2
Fore
SplineSet
684 485 m 1
 689 489 l 1
 716 489 l 1
 680 76 l 1
 646 45 l 1
 590 107 l 1
 618 424 l 1
 684 485 l 1
726 955 m 1
 754 924 l 1
 718 510 l 1
 691 510 l 1
 687 514 l 1
 631 575 l 1
 659 893 l 1
 726 955 l 1
EndSplineSet
EndChar

StartChar: two
Encoding: 50 50 3
Width: 816
VWidth: 200
Flags: HW
LayerCount: 2
Fore
SplineSet
90 45 m 1
 62 76 l 1
 98 490 l 1
 125 490 l 1
 129 485 l 1
 185 424 l 1
 157 107 l 1
 90 45 l 1
185 969 m 1
 219 1000 l 1
 684 1000 l 1
 713 969 l 1
 645 907 l 1
 242 907 l 1
 185 969 l 1
671 499 m 1
 620 453 l 1
 620 454 l 1
 188 454 l 1
 188 453 l 1
 144 500 l 1
 196 547 l 1
 196 546 l 1
 628 546 l 1
 671 499 l 1
726 955 m 1
 754 924 l 1
 718 510 l 1
 691 510 l 1
 687 514 l 1
 631 575 l 1
 659 893 l 1
 726 955 l 1
631 31 m 1
 597 0 l 1
 132 0 l 1
 103 31 l 1
 171 93 l 1
 574 93 l 1
 631 31 l 1
EndSplineSet
EndChar

StartChar: three
Encoding: 51 51 4
Width: 816
VWidth: 200
Flags: HW
LayerCount: 2
Fore
SplineSet
185 969 m 1
 219 1000 l 1
 684 1000 l 1
 713 969 l 1
 645 907 l 1
 242 907 l 1
 185 969 l 1
671 499 m 1
 620 453 l 1
 620 454 l 1
 188 454 l 1
 188 453 l 1
 144 500 l 1
 196 547 l 1
 196 546 l 1
 628 546 l 1
 671 499 l 1
684 485 m 1
 689 489 l 1
 716 489 l 1
 680 76 l 1
 646 45 l 1
 590 107 l 1
 618 424 l 1
 684 485 l 1
726 955 m 1
 754 924 l 1
 718 510 l 1
 691 510 l 1
 687 514 l 1
 631 575 l 1
 659 893 l 1
 726 955 l 1
631 31 m 1
 597 0 l 1
 132 0 l 1
 103 31 l 1
 171 93 l 1
 574 93 l 1
 631 31 l 1
EndSplineSet
EndChar

StartChar: four
Encoding: 52 52 5
Width: 816
VWidth: 200
Flags: HW
LayerCount: 2
Fore
SplineSet
131 515 m 1
 127 510 l 1
 100 510 l 1
 136 924 l 1
 170 955 l 1
 226 893 l 1
 198 576 l 1
 131 515 l 1
671 499 m 1
 620 453 l 1
 620 454 l 1
 188 454 l 1
 188 453 l 1
 144 500 l 1
 196 547 l 1
 196 546 l 1
 628 546 l 1
 671 499 l 1
684 485 m 1
 689 489 l 1
 716 489 l 1
 680 76 l 1
 646 45 l 1
 590 107 l 1
 618 424 l 1
 684 485 l 1
726 955 m 1
 754 924 l 1
 718 510 l 1
 691 510 l 1
 687 514 l 1
 631 575 l 1
 659 893 l 1
 726 955 l 1
EndSplineSet
EndChar

StartChar: five
Encoding: 53 53 6
Width: 816
VWidth: 200
Flags: HW
LayerCount: 2
Fore
SplineSet
131 515 m 1
 127 510 l 1
 100 510 l 1
 136 924 l 1
 170 955 l 1
 226 893 l 1
 198 576 l 1
 131 515 l 1
185 969 m 1
 219 1000 l 1
 684 1000 l 1
 713 969 l 1
 645 907 l 1
 242 907 l 1
 185 969 l 1
671 499 m 1
 620 453 l 1
 620 454 l 1
 188 454 l 1
 188 453 l 1
 144 500 l 1
 196 547 l 1
 196 546 l 1
 628 546 l 1
 671 499 l 1
684 485 m 1
 689 489 l 1
 716 489 l 1
 680 76 l 1
 646 45 l 1
 590 107 l 1
 618 424 l 1
 684 485 l 1
631 31 m 1
 597 0 l 1
 132 0 l 1
 103 31 l 1
 171 93 l 1
 574 93 l 1
 631 31 l 1
EndSplineSet
EndChar

StartChar: six
Encoding: 54 54 7
Width: 816
VWidth: 200
Flags: HW
LayerCount: 2
Fore
SplineSet
90 45 m 1
 62 76 l 1
 98 490 l 1
 125 490 l 1
 129 485 l 1
 185 424 l 1
 157 107 l 1
 90 45 l 1
131 515 m 1
 127 510 l 1
 100 510 l 1
 136 924 l 1
 170 955 l 1
 226 893 l 1
 198 576 l 1
 131 515 l 1
185 969 m 1
 219 1000 l 1
 684 1000 l 1
 713 969 l 1
 645 907 l 1
 242 907 l 1
 185 969 l 1
671 499 m 1
 620 453 l 1
 620 454 l 1
 188 454 l 1
 188 453 l 1
 144 500 l 1
 196 547 l 1
 196 546 l 1
 628 546 l 1
 671 499 l 1
684 485 m 1
 689 489 l 1
 716 489 l 1
 680 76 l 1
 646 45 l 1
 590 107 l 1
 618 424 l 1
 684 485 l 1
631 31 m 1
 597 0 l 1
 132 0 l 1
 103 31 l 1
 171 93 l 1
 574 93 l 1
 631 31 l 1
EndSplineSet
EndChar

StartChar: seven
Encoding: 55 55 8
Width: 816
VWidth: 200
Flags: HW
LayerCount: 2
Fore
SplineSet
131 515 m 1
 127 510 l 1
 100 510 l 1
 136 924 l 1
 170 955 l 1
 226 893 l 1
 198 576 l 1
 131 515 l 1
185 969 m 1
 219 1000 l 1
 684 1000 l 1
 713 969 l 1
 645 907 l 1
 242 907 l 1
 185 969 l 1
684 485 m 1
 689 489 l 1
 716 489 l 1
 680 76 l 1
 646 45 l 1
 590 107 l 1
 618 424 l 1
 684 485 l 1
726 955 m 1
 754 924 l 1
 718 510 l 1
 691 510 l 1
 687 514 l 1
 631 575 l 1
 659 893 l 1
 726 955 l 1
EndSplineSet
EndChar

StartChar: nine
Encoding: 57 57 9
Width: 816
VWidth: 200
Flags: HW
LayerCount: 2
Fore
SplineSet
131 515 m 1
 127 510 l 1
 100 510 l 1
 136 924 l 1
 170 955 l 1
 226 893 l 1
 198 576 l 1
 131 515 l 1
185 969 m 1
 219 1000 l 1
 684 1000 l 1
 713 969 l 1
 645 907 l 1
 242 907 l 1
 185 969 l 1
671 499 m 1
 620 453 l 1
 620 454 l 1
 188 454 l 1
 188 453 l 1
 144 500 l 1
 196 547 l 1
 196 546 l 1
 628 546 l 1
 671 499 l 1
684 485 m 1
 689 489 l 1
 716 489 l 1
 680 76 l 1
 646 45 l 1
 590 107 l 1
 618 424 l 1
 684 485 l 1
726 955 m 1
 754 924 l 1
 718 510 l 1
 691 510 l 1
 687 514 l 1
 631 575 l 1
 659 893 l 1
 726 955 l 1
631 31 m 1
 597 0 l 1
 132 0 l 1
 103 31 l 1
 171 93 l 1
 574 93 l 1
 631 31 l 1
EndSplineSet
EndChar

StartChar: a
Encoding: 97 97 10
Width: 816
VWidth: 200
Flags: HW
LayerCount: 2
Fore
SplineSet
90 45 m 1
 62 76 l 1
 98 490 l 1
 125 490 l 1
 129 485 l 1
 185 424 l 1
 157 107 l 1
 90 45 l 1
131 515 m 1
 127 510 l 1
 100 510 l 1
 136 924 l 1
 170 955 l 1
 226 893 l 1
 198 576 l 1
 131 515 l 1
185 969 m 1
 219 1000 l 1
 684 1000 l 1
 713 969 l 1
 645 907 l 1
 242 907 l 1
 185 969 l 1
671 499 m 1
 620 453 l 1
 620 454 l 1
 188 454 l 1
 188 453 l 1
 144 500 l 1
 196 547 l 1
 196 546 l 1
 628 546 l 1
 671 499 l 1
684 485 m 1
 689 489 l 1
 716 489 l 1
 680 76 l 1
 646 45 l 1
 590 107 l 1
 618 424 l 1
 684 485 l 1
726 955 m 1
 754 924 l 1
 718 510 l 1
 691 510 l 1
 687 514 l 1
 631 575 l 1
 659 893 l 1
 726 955 l 1
EndSplineSet
EndChar

StartChar: b
Encoding: 98 98 11
Width: 816
VWidth: 200
Flags: HW
LayerCount: 2
Fore
SplineSet
90 45 m 1
 62 76 l 1
 98 490 l 1
 125 490 l 1
 129 485 l 1
 185 424 l 1
 157 107 l 1
 90 45 l 1
131 515 m 1
 127 510 l 1
 100 510 l 1
 136 924 l 1
 170 955 l 1
 226 893 l 1
 198 576 l 1
 131 515 l 1
671 499 m 1
 620 453 l 1
 620 454 l 1
 188 454 l 1
 188 453 l 1
 144 500 l 1
 196 547 l 1
 196 546 l 1
 628 546 l 1
 671 499 l 1
684 485 m 1
 689 489 l 1
 716 489 l 1
 680 76 l 1
 646 45 l 1
 590 107 l 1
 618 424 l 1
 684 485 l 1
631 31 m 1
 597 0 l 1
 132 0 l 1
 103 31 l 1
 171 93 l 1
 574 93 l 1
 631 31 l 1
EndSplineSet
EndChar

StartChar: c
Encoding: 99 99 12
Width: 816
VWidth: 200
Flags: HW
LayerCount: 2
Fore
SplineSet
90 45 m 1
 62 76 l 1
 98 490 l 1
 125 490 l 1
 129 485 l 1
 185 424 l 1
 157 107 l 1
 90 45 l 1
671 499 m 1
 620 453 l 1
 620 454 l 1
 188 454 l 1
 188 453 l 1
 144 500 l 1
 196 547 l 1
 196 546 l 1
 628 546 l 1
 671 499 l 1
631 31 m 1
 597 0 l 1
 132 0 l 1
 103 31 l 1
 171 93 l 1
 574 93 l 1
 631 31 l 1
EndSplineSet
EndChar

StartChar: d
Encoding: 100 100 13
Width: 816
VWidth: 200
Flags: HW
LayerCount: 2
Fore
SplineSet
90 45 m 1
 62 76 l 1
 98 490 l 1
 125 490 l 1
 129 485 l 1
 185 424 l 1
 157 107 l 1
 90 45 l 1
671 499 m 1
 620 453 l 1
 620 454 l 1
 188 454 l 1
 188 453 l 1
 144 500 l 1
 196 547 l 1
 196 546 l 1
 628 546 l 1
 671 499 l 1
684 485 m 1
 689 489 l 1
 716 489 l 1
 680 76 l 1
 646 45 l 1
 590 107 l 1
 618 424 l 1
 684 485 l 1
726 955 m 1
 754 924 l 1
 718 510 l 1
 691 510 l 1
 687 514 l 1
 631 575 l 1
 659 893 l 1
 726 955 l 1
631 31 m 1
 597 0 l 1
 132 0 l 1
 103 31 l 1
 171 93 l 1
 574 93 l 1
 631 31 l 1
EndSplineSet
EndChar

StartChar: e
Encoding: 101 101 14
Width: 816
VWidth: 200
Flags: HW
LayerCount: 2
Fore
SplineSet
90 45 m 1
 62 76 l 1
 98 490 l 1
 125 490 l 1
 129 485 l 1
 185 424 l 1
 157 107 l 1
 90 45 l 1
131 515 m 1
 127 510 l 1
 100 510 l 1
 136 924 l 1
 170 955 l 1
 226 893 l 1
 198 576 l 1
 131 515 l 1
185 969 m 1
 219 1000 l 1
 684 1000 l 1
 713 969 l 1
 645 907 l 1
 242 907 l 1
 185 969 l 1
671 499 m 1
 620 453 l 1
 620 454 l 1
 188 454 l 1
 188 453 l 1
 144 500 l 1
 196 547 l 1
 196 546 l 1
 628 546 l 1
 671 499 l 1
631 31 m 1
 597 0 l 1
 132 0 l 1
 103 31 l 1
 171 93 l 1
 574 93 l 1
 631 31 l 1
EndSplineSet
EndChar

StartChar: f
Encoding: 102 102 15
Width: 816
VWidth: 200
Flags: HW
LayerCount: 2
Fore
SplineSet
90 45 m 1
 62 76 l 1
 98 490 l 1
 125 490 l 1
 129 485 l 1
 185 424 l 1
 157 107 l 1
 90 45 l 1
131 515 m 1
 127 510 l 1
 100 510 l 1
 136 924 l 1
 170 955 l 1
 226 893 l 1
 198 576 l 1
 131 515 l 1
185 969 m 1
 219 1000 l 1
 684 1000 l 1
 713 969 l 1
 645 907 l 1
 242 907 l 1
 185 969 l 1
671 499 m 1
 620 453 l 1
 620 454 l 1
 188 454 l 1
 188 453 l 1
 144 500 l 1
 196 547 l 1
 196 546 l 1
 628 546 l 1
 671 499 l 1
EndSplineSet
EndChar

StartChar: g
Encoding: 103 103 16
Width: 816
VWidth: 200
Flags: HW
LayerCount: 2
Fore
SplineSet
90 45 m 1
 62 76 l 1
 98 490 l 1
 125 490 l 1
 129 485 l 1
 185 424 l 1
 157 107 l 1
 90 45 l 1
131 515 m 1
 127 510 l 1
 100 510 l 1
 136 924 l 1
 170 955 l 1
 226 893 l 1
 198 576 l 1
 131 515 l 1
185 969 m 1
 219 1000 l 1
 684 1000 l 1
 713 969 l 1
 645 907 l 1
 242 907 l 1
 185 969 l 1
684 485 m 1
 689 489 l 1
 716 489 l 1
 680 76 l 1
 646 45 l 1
 590 107 l 1
 618 424 l 1
 684 485 l 1
631 31 m 1
 597 0 l 1
 132 0 l 1
 103 31 l 1
 171 93 l 1
 574 93 l 1
 631 31 l 1
EndSplineSet
EndChar

StartChar: h
Encoding: 104 104 17
Width: 816
VWidth: 200
Flags: HW
LayerCount: 2
Fore
SplineSet
90 45 m 1
 62 76 l 1
 98 490 l 1
 125 490 l 1
 129 485 l 1
 185 424 l 1
 157 107 l 1
 90 45 l 1
131 515 m 1
 127 510 l 1
 100 510 l 1
 136 924 l 1
 170 955 l 1
 226 893 l 1
 198 576 l 1
 131 515 l 1
671 499 m 1
 620 453 l 1
 620 454 l 1
 188 454 l 1
 188 453 l 1
 144 500 l 1
 196 547 l 1
 196 546 l 1
 628 546 l 1
 671 499 l 1
684 485 m 1
 689 489 l 1
 716 489 l 1
 680 76 l 1
 646 45 l 1
 590 107 l 1
 618 424 l 1
 684 485 l 1
EndSplineSet
EndChar

StartChar: i
Encoding: 105 105 18
Width: 816
VWidth: 200
Flags: HW
LayerCount: 2
Fore
SplineSet
684 485 m 1
 689 489 l 1
 716 489 l 1
 680 76 l 1
 646 45 l 1
 590 107 l 1
 618 424 l 1
 684 485 l 1
EndSplineSet
EndChar

StartChar: j
Encoding: 106 106 19
Width: 816
VWidth: 200
Flags: HW
LayerCount: 2
Fore
SplineSet
90 45 m 1
 62 76 l 1
 98 490 l 1
 125 490 l 1
 129 485 l 1
 185 424 l 1
 157 107 l 1
 90 45 l 1
684 485 m 1
 689 489 l 1
 716 489 l 1
 680 76 l 1
 646 45 l 1
 590 107 l 1
 618 424 l 1
 684 485 l 1
726 955 m 1
 754 924 l 1
 718 510 l 1
 691 510 l 1
 687 514 l 1
 631 575 l 1
 659 893 l 1
 726 955 l 1
631 31 m 1
 597 0 l 1
 132 0 l 1
 103 31 l 1
 171 93 l 1
 574 93 l 1
 631 31 l 1
EndSplineSet
EndChar

StartChar: k
Encoding: 107 107 20
Width: 816
VWidth: 200
Flags: HW
LayerCount: 2
Fore
SplineSet
90 45 m 1
 62 76 l 1
 98 490 l 1
 125 490 l 1
 129 485 l 1
 185 424 l 1
 157 107 l 1
 90 45 l 1
131 515 m 1
 127 510 l 1
 100 510 l 1
 136 924 l 1
 170 955 l 1
 226 893 l 1
 198 576 l 1
 131 515 l 1
185 969 m 1
 219 1000 l 1
 684 1000 l 1
 713 969 l 1
 645 907 l 1
 242 907 l 1
 185 969 l 1
671 499 m 1
 620 453 l 1
 620 454 l 1
 188 454 l 1
 188 453 l 1
 144 500 l 1
 196 547 l 1
 196 546 l 1
 628 546 l 1
 671 499 l 1
684 485 m 1
 689 489 l 1
 716 489 l 1
 680 76 l 1
 646 45 l 1
 590 107 l 1
 618 424 l 1
 684 485 l 1
EndSplineSet
EndChar

StartChar: l
Encoding: 108 108 21
Width: 816
VWidth: 200
Flags: HW
LayerCount: 2
Fore
SplineSet
90 45 m 1
 62 76 l 1
 98 490 l 1
 125 490 l 1
 129 485 l 1
 185 424 l 1
 157 107 l 1
 90 45 l 1
131 515 m 1
 127 510 l 1
 100 510 l 1
 136 924 l 1
 170 955 l 1
 226 893 l 1
 198 576 l 1
 131 515 l 1
631 31 m 1
 597 0 l 1
 132 0 l 1
 103 31 l 1
 171 93 l 1
 574 93 l 1
 631 31 l 1
EndSplineSet
EndChar

StartChar: m
Encoding: 109 109 22
Width: 816
VWidth: 200
Flags: HW
LayerCount: 2
Fore
SplineSet
90 45 m 1
 62 76 l 1
 98 490 l 1
 125 490 l 1
 129 485 l 1
 185 424 l 1
 157 107 l 1
 90 45 l 1
131 515 m 1
 127 510 l 1
 100 510 l 1
 136 924 l 1
 170 955 l 1
 226 893 l 1
 198 576 l 1
 131 515 l 1
185 969 m 1
 219 1000 l 1
 684 1000 l 1
 713 969 l 1
 645 907 l 1
 242 907 l 1
 185 969 l 1
684 485 m 1
 689 489 l 1
 716 489 l 1
 680 76 l 1
 646 45 l 1
 590 107 l 1
 618 424 l 1
 684 485 l 1
726 955 m 1
 754 924 l 1
 718 510 l 1
 691 510 l 1
 687 514 l 1
 631 575 l 1
 659 893 l 1
 726 955 l 1
EndSplineSet
EndChar

StartChar: n
Encoding: 110 110 23
Width: 816
VWidth: 200
Flags: HW
LayerCount: 2
Fore
SplineSet
90 45 m 1
 62 76 l 1
 98 490 l 1
 125 490 l 1
 129 485 l 1
 185 424 l 1
 157 107 l 1
 90 45 l 1
671 499 m 1
 620 453 l 1
 620 454 l 1
 188 454 l 1
 188 453 l 1
 144 500 l 1
 196 547 l 1
 196 546 l 1
 628 546 l 1
 671 499 l 1
684 485 m 1
 689 489 l 1
 716 489 l 1
 680 76 l 1
 646 45 l 1
 590 107 l 1
 618 424 l 1
 684 485 l 1
EndSplineSet
EndChar

StartChar: o
Encoding: 111 111 24
Width: 816
VWidth: 200
Flags: HW
LayerCount: 2
Fore
SplineSet
90 45 m 1
 62 76 l 1
 98 490 l 1
 125 490 l 1
 129 485 l 1
 185 424 l 1
 157 107 l 1
 90 45 l 1
671 499 m 1
 620 453 l 1
 620 454 l 1
 188 454 l 1
 188 453 l 1
 144 500 l 1
 196 547 l 1
 196 546 l 1
 628 546 l 1
 671 499 l 1
684 485 m 1
 689 489 l 1
 716 489 l 1
 680 76 l 1
 646 45 l 1
 590 107 l 1
 618 424 l 1
 684 485 l 1
631 31 m 1
 597 0 l 1
 132 0 l 1
 103 31 l 1
 171 93 l 1
 574 93 l 1
 631 31 l 1
EndSplineSet
EndChar

StartChar: p
Encoding: 112 112 25
Width: 816
VWidth: 200
Flags: HW
LayerCount: 2
Fore
SplineSet
90 45 m 1
 62 76 l 1
 98 490 l 1
 125 490 l 1
 129 485 l 1
 185 424 l 1
 157 107 l 1
 90 45 l 1
131 515 m 1
 127 510 l 1
 100 510 l 1
 136 924 l 1
 170 955 l 1
 226 893 l 1
 198 576 l 1
 131 515 l 1
185 969 m 1
 219 1000 l 1
 684 1000 l 1
 713 969 l 1
 645 907 l 1
 242 907 l 1
 185 969 l 1
671 499 m 1
 620 453 l 1
 620 454 l 1
 188 454 l 1
 188 453 l 1
 144 500 l 1
 196 547 l 1
 196 546 l 1
 628 546 l 1
 671 499 l 1
726 955 m 1
 754 924 l 1
 718 510 l 1
 691 510 l 1
 687 514 l 1
 631 575 l 1
 659 893 l 1
 726 955 l 1
EndSplineSet
EndChar

StartChar: q
Encoding: 113 113 26
Width: 816
VWidth: 200
Flags: HW
LayerCount: 2
Fore
SplineSet
131 515 m 1
 127 510 l 1
 100 510 l 1
 136 924 l 1
 170 955 l 1
 226 893 l 1
 198 576 l 1
 131 515 l 1
185 969 m 1
 219 1000 l 1
 684 1000 l 1
 713 969 l 1
 645 907 l 1
 242 907 l 1
 185 969 l 1
671 499 m 1
 620 453 l 1
 620 454 l 1
 188 454 l 1
 188 453 l 1
 144 500 l 1
 196 547 l 1
 196 546 l 1
 628 546 l 1
 671 499 l 1
684 485 m 1
 689 489 l 1
 716 489 l 1
 680 76 l 1
 646 45 l 1
 590 107 l 1
 618 424 l 1
 684 485 l 1
726 955 m 1
 754 924 l 1
 718 510 l 1
 691 510 l 1
 687 514 l 1
 631 575 l 1
 659 893 l 1
 726 955 l 1
EndSplineSet
EndChar

StartChar: r
Encoding: 114 114 27
Width: 816
VWidth: 200
Flags: HW
LayerCount: 2
Fore
SplineSet
90 45 m 1
 62 76 l 1
 98 490 l 1
 125 490 l 1
 129 485 l 1
 185 424 l 1
 157 107 l 1
 90 45 l 1
671 499 m 1
 620 453 l 1
 620 454 l 1
 188 454 l 1
 188 453 l 1
 144 500 l 1
 196 547 l 1
 196 546 l 1
 628 546 l 1
 671 499 l 1
EndSplineSet
EndChar

StartChar: s
Encoding: 115 115 28
Width: 816
VWidth: 200
Flags: HW
LayerCount: 2
Fore
SplineSet
131 515 m 1
 127 510 l 1
 100 510 l 1
 136 924 l 1
 170 955 l 1
 226 893 l 1
 198 576 l 1
 131 515 l 1
671 499 m 1
 620 453 l 1
 620 454 l 1
 188 454 l 1
 188 453 l 1
 144 500 l 1
 196 547 l 1
 196 546 l 1
 628 546 l 1
 671 499 l 1
684 485 m 1
 689 489 l 1
 716 489 l 1
 680 76 l 1
 646 45 l 1
 590 107 l 1
 618 424 l 1
 684 485 l 1
631 31 m 1
 597 0 l 1
 132 0 l 1
 103 31 l 1
 171 93 l 1
 574 93 l 1
 631 31 l 1
EndSplineSet
EndChar

StartChar: t
Encoding: 116 116 29
Width: 816
VWidth: 200
Flags: HW
LayerCount: 2
Fore
SplineSet
90 45 m 1
 62 76 l 1
 98 490 l 1
 125 490 l 1
 129 485 l 1
 185 424 l 1
 157 107 l 1
 90 45 l 1
131 515 m 1
 127 510 l 1
 100 510 l 1
 136 924 l 1
 170 955 l 1
 226 893 l 1
 198 576 l 1
 131 515 l 1
671 499 m 1
 620 453 l 1
 620 454 l 1
 188 454 l 1
 188 453 l 1
 144 500 l 1
 196 547 l 1
 196 546 l 1
 628 546 l 1
 671 499 l 1
631 31 m 1
 597 0 l 1
 132 0 l 1
 103 31 l 1
 171 93 l 1
 574 93 l 1
 631 31 l 1
EndSplineSet
EndChar

StartChar: u
Encoding: 117 117 30
Width: 816
VWidth: 200
Flags: HW
LayerCount: 2
Fore
SplineSet
90 45 m 1
 62 76 l 1
 98 490 l 1
 125 490 l 1
 129 485 l 1
 185 424 l 1
 157 107 l 1
 90 45 l 1
684 485 m 1
 689 489 l 1
 716 489 l 1
 680 76 l 1
 646 45 l 1
 590 107 l 1
 618 424 l 1
 684 485 l 1
631 31 m 1
 597 0 l 1
 132 0 l 1
 103 31 l 1
 171 93 l 1
 574 93 l 1
 631 31 l 1
EndSplineSet
EndChar

StartChar: v
Encoding: 118 118 31
Width: 816
VWidth: 200
Flags: HW
LayerCount: 2
Fore
SplineSet
90 45 m 1
 62 76 l 1
 98 490 l 1
 125 490 l 1
 129 485 l 1
 185 424 l 1
 157 107 l 1
 90 45 l 1
131 515 m 1
 127 510 l 1
 100 510 l 1
 136 924 l 1
 170 955 l 1
 226 893 l 1
 198 576 l 1
 131 515 l 1
684 485 m 1
 689 489 l 1
 716 489 l 1
 680 76 l 1
 646 45 l 1
 590 107 l 1
 618 424 l 1
 684 485 l 1
726 955 m 1
 754 924 l 1
 718 510 l 1
 691 510 l 1
 687 514 l 1
 631 575 l 1
 659 893 l 1
 726 955 l 1
631 31 m 1
 597 0 l 1
 132 0 l 1
 103 31 l 1
 171 93 l 1
 574 93 l 1
 631 31 l 1
EndSplineSet
EndChar

StartChar: w
Encoding: 119 119 32
Width: 816
VWidth: 200
Flags: HW
LayerCount: 2
Fore
SplineSet
90 45 m 1
 62 76 l 1
 98 490 l 1
 125 490 l 1
 129 485 l 1
 185 424 l 1
 157 107 l 1
 90 45 l 1
131 515 m 1
 127 510 l 1
 100 510 l 1
 136 924 l 1
 170 955 l 1
 226 893 l 1
 198 576 l 1
 131 515 l 1
671 499 m 1
 620 453 l 1
 620 454 l 1
 188 454 l 1
 188 453 l 1
 144 500 l 1
 196 547 l 1
 196 546 l 1
 628 546 l 1
 671 499 l 1
684 485 m 1
 689 489 l 1
 716 489 l 1
 680 76 l 1
 646 45 l 1
 590 107 l 1
 618 424 l 1
 684 485 l 1
726 955 m 1
 754 924 l 1
 718 510 l 1
 691 510 l 1
 687 514 l 1
 631 575 l 1
 659 893 l 1
 726 955 l 1
631 31 m 1
 597 0 l 1
 132 0 l 1
 103 31 l 1
 171 93 l 1
 574 93 l 1
 631 31 l 1
EndSplineSet
EndChar

StartChar: x
Encoding: 120 120 33
Width: 816
VWidth: 200
Flags: HW
LayerCount: 2
Fore
SplineSet
90 45 m 1
 62 76 l 1
 98 490 l 1
 125 490 l 1
 129 485 l 1
 185 424 l 1
 157 107 l 1
 90 45 l 1
131 515 m 1
 127 510 l 1
 100 510 l 1
 136 924 l 1
 170 955 l 1
 226 893 l 1
 198 576 l 1
 131 515 l 1
671 499 m 1
 620 453 l 1
 620 454 l 1
 188 454 l 1
 188 453 l 1
 144 500 l 1
 196 547 l 1
 196 546 l 1
 628 546 l 1
 671 499 l 1
684 485 m 1
 689 489 l 1
 716 489 l 1
 680 76 l 1
 646 45 l 1
 590 107 l 1
 618 424 l 1
 684 485 l 1
726 955 m 1
 754 924 l 1
 718 510 l 1
 691 510 l 1
 687 514 l 1
 631 575 l 1
 659 893 l 1
 726 955 l 1
EndSplineSet
EndChar

StartChar: y
Encoding: 121 121 34
Width: 816
VWidth: 200
Flags: HW
LayerCount: 2
Fore
SplineSet
131 515 m 1
 127 510 l 1
 100 510 l 1
 136 924 l 1
 170 955 l 1
 226 893 l 1
 198 576 l 1
 131 515 l 1
671 499 m 1
 620 453 l 1
 620 454 l 1
 188 454 l 1
 188 453 l 1
 144 500 l 1
 196 547 l 1
 196 546 l 1
 628 546 l 1
 671 499 l 1
684 485 m 1
 689 489 l 1
 716 489 l 1
 680 76 l 1
 646 45 l 1
 590 107 l 1
 618 424 l 1
 684 485 l 1
726 955 m 1
 754 924 l 1
 718 510 l 1
 691 510 l 1
 687 514 l 1
 631 575 l 1
 659 893 l 1
 726 955 l 1
631 31 m 1
 597 0 l 1
 132 0 l 1
 103 31 l 1
 171 93 l 1
 574 93 l 1
 631 31 l 1
EndSplineSet
EndChar

StartChar: z
Encoding: 122 122 35
Width: 816
VWidth: 200
Flags: HW
LayerCount: 2
Fore
SplineSet
90 45 m 1
 62 76 l 1
 98 490 l 1
 125 490 l 1
 129 485 l 1
 185 424 l 1
 157 107 l 1
 90 45 l 1
185 969 m 1
 219 1000 l 1
 684 1000 l 1
 713 969 l 1
 645 907 l 1
 242 907 l 1
 185 969 l 1
726 955 m 1
 754 924 l 1
 718 510 l 1
 691 510 l 1
 687 514 l 1
 631 575 l 1
 659 893 l 1
 726 955 l 1
631 31 m 1
 597 0 l 1
 132 0 l 1
 103 31 l 1
 171 93 l 1
 574 93 l 1
 631 31 l 1
EndSplineSet
EndChar

StartChar: A
Encoding: 65 65 36
Width: 816
VWidth: 200
Flags: HW
LayerCount: 2
Fore
SplineSet
90 45 m 1
 62 76 l 1
 98 490 l 1
 125 490 l 1
 129 485 l 1
 185 424 l 1
 157 107 l 1
 90 45 l 1
131 515 m 1
 127 510 l 1
 100 510 l 1
 136 924 l 1
 170 955 l 1
 226 893 l 1
 198 576 l 1
 131 515 l 1
185 969 m 1
 219 1000 l 1
 684 1000 l 1
 713 969 l 1
 645 907 l 1
 242 907 l 1
 185 969 l 1
671 499 m 1
 620 453 l 1
 620 454 l 1
 188 454 l 1
 188 453 l 1
 144 500 l 1
 196 547 l 1
 196 546 l 1
 628 546 l 1
 671 499 l 1
684 485 m 1
 689 489 l 1
 716 489 l 1
 680 76 l 1
 646 45 l 1
 590 107 l 1
 618 424 l 1
 684 485 l 1
726 955 m 1
 754 924 l 1
 718 510 l 1
 691 510 l 1
 687 514 l 1
 631 575 l 1
 659 893 l 1
 726 955 l 1
EndSplineSet
EndChar

StartChar: B
Encoding: 66 66 37
Width: 816
VWidth: 200
Flags: HW
LayerCount: 2
Fore
SplineSet
90 45 m 1
 62 76 l 1
 98 490 l 1
 125 490 l 1
 129 485 l 1
 185 424 l 1
 157 107 l 1
 90 45 l 1
131 515 m 1
 127 510 l 1
 100 510 l 1
 136 924 l 1
 170 955 l 1
 226 893 l 1
 198 576 l 1
 131 515 l 1
671 499 m 1
 620 453 l 1
 620 454 l 1
 188 454 l 1
 188 453 l 1
 144 500 l 1
 196 547 l 1
 196 546 l 1
 628 546 l 1
 671 499 l 1
684 485 m 1
 689 489 l 1
 716 489 l 1
 680 76 l 1
 646 45 l 1
 590 107 l 1
 618 424 l 1
 684 485 l 1
631 31 m 1
 597 0 l 1
 132 0 l 1
 103 31 l 1
 171 93 l 1
 574 93 l 1
 631 31 l 1
EndSplineSet
EndChar

StartChar: C
Encoding: 67 67 38
Width: 816
VWidth: 200
Flags: HW
LayerCount: 2
Fore
SplineSet
90 45 m 1
 62 76 l 1
 98 490 l 1
 125 490 l 1
 129 485 l 1
 185 424 l 1
 157 107 l 1
 90 45 l 1
671 499 m 1
 620 453 l 1
 620 454 l 1
 188 454 l 1
 188 453 l 1
 144 500 l 1
 196 547 l 1
 196 546 l 1
 628 546 l 1
 671 499 l 1
631 31 m 1
 597 0 l 1
 132 0 l 1
 103 31 l 1
 171 93 l 1
 574 93 l 1
 631 31 l 1
EndSplineSet
EndChar

StartChar: D
Encoding: 68 68 39
Width: 816
VWidth: 200
Flags: HW
LayerCount: 2
Fore
SplineSet
90 45 m 1
 62 76 l 1
 98 490 l 1
 125 490 l 1
 129 485 l 1
 185 424 l 1
 157 107 l 1
 90 45 l 1
671 499 m 1
 620 453 l 1
 620 454 l 1
 188 454 l 1
 188 453 l 1
 144 500 l 1
 196 547 l 1
 196 546 l 1
 628 546 l 1
 671 499 l 1
684 485 m 1
 689 489 l 1
 716 489 l 1
 680 76 l 1
 646 45 l 1
 590 107 l 1
 618 424 l 1
 684 485 l 1
726 955 m 1
 754 924 l 1
 718 510 l 1
 691 510 l 1
 687 514 l 1
 631 575 l 1
 659 893 l 1
 726 955 l 1
631 31 m 1
 597 0 l 1
 132 0 l 1
 103 31 l 1
 171 93 l 1
 574 93 l 1
 631 31 l 1
EndSplineSet
EndChar

StartChar: E
Encoding: 69 69 40
Width: 816
VWidth: 200
Flags: HW
LayerCount: 2
Fore
SplineSet
90 45 m 1
 62 76 l 1
 98 490 l 1
 125 490 l 1
 129 485 l 1
 185 424 l 1
 157 107 l 1
 90 45 l 1
131 515 m 1
 127 510 l 1
 100 510 l 1
 136 924 l 1
 170 955 l 1
 226 893 l 1
 198 576 l 1
 131 515 l 1
185 969 m 1
 219 1000 l 1
 684 1000 l 1
 713 969 l 1
 645 907 l 1
 242 907 l 1
 185 969 l 1
671 499 m 1
 620 453 l 1
 620 454 l 1
 188 454 l 1
 188 453 l 1
 144 500 l 1
 196 547 l 1
 196 546 l 1
 628 546 l 1
 671 499 l 1
631 31 m 1
 597 0 l 1
 132 0 l 1
 103 31 l 1
 171 93 l 1
 574 93 l 1
 631 31 l 1
EndSplineSet
EndChar

StartChar: F
Encoding: 70 70 41
Width: 816
VWidth: 200
Flags: HW
LayerCount: 2
Fore
SplineSet
90 45 m 1
 62 76 l 1
 98 490 l 1
 125 490 l 1
 129 485 l 1
 185 424 l 1
 157 107 l 1
 90 45 l 1
131 515 m 1
 127 510 l 1
 100 510 l 1
 136 924 l 1
 170 955 l 1
 226 893 l 1
 198 576 l 1
 131 515 l 1
185 969 m 1
 219 1000 l 1
 684 1000 l 1
 713 969 l 1
 645 907 l 1
 242 907 l 1
 185 969 l 1
671 499 m 1
 620 453 l 1
 620 454 l 1
 188 454 l 1
 188 453 l 1
 144 500 l 1
 196 547 l 1
 196 546 l 1
 628 546 l 1
 671 499 l 1
EndSplineSet
EndChar

StartChar: G
Encoding: 71 71 42
Width: 816
VWidth: 200
Flags: HW
LayerCount: 2
Fore
SplineSet
90 45 m 1
 62 76 l 1
 98 490 l 1
 125 490 l 1
 129 485 l 1
 185 424 l 1
 157 107 l 1
 90 45 l 1
131 515 m 1
 127 510 l 1
 100 510 l 1
 136 924 l 1
 170 955 l 1
 226 893 l 1
 198 576 l 1
 131 515 l 1
185 969 m 1
 219 1000 l 1
 684 1000 l 1
 713 969 l 1
 645 907 l 1
 242 907 l 1
 185 969 l 1
684 485 m 1
 689 489 l 1
 716 489 l 1
 680 76 l 1
 646 45 l 1
 590 107 l 1
 618 424 l 1
 684 485 l 1
631 31 m 1
 597 0 l 1
 132 0 l 1
 103 31 l 1
 171 93 l 1
 574 93 l 1
 631 31 l 1
EndSplineSet
EndChar

StartChar: H
Encoding: 72 72 43
Width: 816
VWidth: 200
Flags: HW
LayerCount: 2
Fore
SplineSet
90 45 m 1
 62 76 l 1
 98 490 l 1
 125 490 l 1
 129 485 l 1
 185 424 l 1
 157 107 l 1
 90 45 l 1
131 515 m 1
 127 510 l 1
 100 510 l 1
 136 924 l 1
 170 955 l 1
 226 893 l 1
 198 576 l 1
 131 515 l 1
671 499 m 1
 620 453 l 1
 620 454 l 1
 188 454 l 1
 188 453 l 1
 144 500 l 1
 196 547 l 1
 196 546 l 1
 628 546 l 1
 671 499 l 1
684 485 m 1
 689 489 l 1
 716 489 l 1
 680 76 l 1
 646 45 l 1
 590 107 l 1
 618 424 l 1
 684 485 l 1
EndSplineSet
EndChar

StartChar: I
Encoding: 73 73 44
Width: 816
VWidth: 200
Flags: HW
LayerCount: 2
Fore
SplineSet
684 485 m 1
 689 489 l 1
 716 489 l 1
 680 76 l 1
 646 45 l 1
 590 107 l 1
 618 424 l 1
 684 485 l 1
EndSplineSet
EndChar

StartChar: J
Encoding: 74 74 45
Width: 816
VWidth: 200
Flags: HW
LayerCount: 2
Fore
SplineSet
90 45 m 1
 62 76 l 1
 98 490 l 1
 125 490 l 1
 129 485 l 1
 185 424 l 1
 157 107 l 1
 90 45 l 1
684 485 m 1
 689 489 l 1
 716 489 l 1
 680 76 l 1
 646 45 l 1
 590 107 l 1
 618 424 l 1
 684 485 l 1
726 955 m 1
 754 924 l 1
 718 510 l 1
 691 510 l 1
 687 514 l 1
 631 575 l 1
 659 893 l 1
 726 955 l 1
631 31 m 1
 597 0 l 1
 132 0 l 1
 103 31 l 1
 171 93 l 1
 574 93 l 1
 631 31 l 1
EndSplineSet
EndChar

StartChar: K
Encoding: 75 75 46
Width: 816
VWidth: 200
Flags: HW
LayerCount: 2
Fore
SplineSet
90 45 m 1
 62 76 l 1
 98 490 l 1
 125 490 l 1
 129 485 l 1
 185 424 l 1
 157 107 l 1
 90 45 l 1
131 515 m 1
 127 510 l 1
 100 510 l 1
 136 924 l 1
 170 955 l 1
 226 893 l 1
 198 576 l 1
 131 515 l 1
185 969 m 1
 219 1000 l 1
 684 1000 l 1
 713 969 l 1
 645 907 l 1
 242 907 l 1
 185 969 l 1
671 499 m 1
 620 453 l 1
 620 454 l 1
 188 454 l 1
 188 453 l 1
 144 500 l 1
 196 547 l 1
 196 546 l 1
 628 546 l 1
 671 499 l 1
684 485 m 1
 689 489 l 1
 716 489 l 1
 680 76 l 1
 646 45 l 1
 590 107 l 1
 618 424 l 1
 684 485 l 1
EndSplineSet
EndChar

StartChar: L
Encoding: 76 76 47
Width: 816
VWidth: 200
Flags: HW
LayerCount: 2
Fore
SplineSet
90 45 m 1
 62 76 l 1
 98 490 l 1
 125 490 l 1
 129 485 l 1
 185 424 l 1
 157 107 l 1
 90 45 l 1
131 515 m 1
 127 510 l 1
 100 510 l 1
 136 924 l 1
 170 955 l 1
 226 893 l 1
 198 576 l 1
 131 515 l 1
631 31 m 1
 597 0 l 1
 132 0 l 1
 103 31 l 1
 171 93 l 1
 574 93 l 1
 631 31 l 1
EndSplineSet
EndChar

StartChar: M
Encoding: 77 77 48
Width: 816
VWidth: 200
Flags: HW
LayerCount: 2
Fore
SplineSet
90 45 m 1
 62 76 l 1
 98 490 l 1
 125 490 l 1
 129 485 l 1
 185 424 l 1
 157 107 l 1
 90 45 l 1
131 515 m 1
 127 510 l 1
 100 510 l 1
 136 924 l 1
 170 955 l 1
 226 893 l 1
 198 576 l 1
 131 515 l 1
185 969 m 1
 219 1000 l 1
 684 1000 l 1
 713 969 l 1
 645 907 l 1
 242 907 l 1
 185 969 l 1
684 485 m 1
 689 489 l 1
 716 489 l 1
 680 76 l 1
 646 45 l 1
 590 107 l 1
 618 424 l 1
 684 485 l 1
726 955 m 1
 754 924 l 1
 718 510 l 1
 691 510 l 1
 687 514 l 1
 631 575 l 1
 659 893 l 1
 726 955 l 1
EndSplineSet
EndChar

StartChar: N
Encoding: 78 78 49
Width: 816
VWidth: 200
Flags: HW
LayerCount: 2
Fore
SplineSet
90 45 m 1
 62 76 l 1
 98 490 l 1
 125 490 l 1
 129 485 l 1
 185 424 l 1
 157 107 l 1
 90 45 l 1
671 499 m 1
 620 453 l 1
 620 454 l 1
 188 454 l 1
 188 453 l 1
 144 500 l 1
 196 547 l 1
 196 546 l 1
 628 546 l 1
 671 499 l 1
684 485 m 1
 689 489 l 1
 716 489 l 1
 680 76 l 1
 646 45 l 1
 590 107 l 1
 618 424 l 1
 684 485 l 1
EndSplineSet
EndChar

StartChar: O
Encoding: 79 79 50
Width: 816
VWidth: 200
Flags: HW
LayerCount: 2
Fore
SplineSet
90 45 m 1
 62 76 l 1
 98 490 l 1
 125 490 l 1
 129 485 l 1
 185 424 l 1
 157 107 l 1
 90 45 l 1
671 499 m 1
 620 453 l 1
 620 454 l 1
 188 454 l 1
 188 453 l 1
 144 500 l 1
 196 547 l 1
 196 546 l 1
 628 546 l 1
 671 499 l 1
684 485 m 1
 689 489 l 1
 716 489 l 1
 680 76 l 1
 646 45 l 1
 590 107 l 1
 618 424 l 1
 684 485 l 1
631 31 m 1
 597 0 l 1
 132 0 l 1
 103 31 l 1
 171 93 l 1
 574 93 l 1
 631 31 l 1
EndSplineSet
EndChar

StartChar: P
Encoding: 80 80 51
Width: 816
VWidth: 200
Flags: HW
LayerCount: 2
Fore
SplineSet
90 45 m 1
 62 76 l 1
 98 490 l 1
 125 490 l 1
 129 485 l 1
 185 424 l 1
 157 107 l 1
 90 45 l 1
131 515 m 1
 127 510 l 1
 100 510 l 1
 136 924 l 1
 170 955 l 1
 226 893 l 1
 198 576 l 1
 131 515 l 1
185 969 m 1
 219 1000 l 1
 684 1000 l 1
 713 969 l 1
 645 907 l 1
 242 907 l 1
 185 969 l 1
671 499 m 1
 620 453 l 1
 620 454 l 1
 188 454 l 1
 188 453 l 1
 144 500 l 1
 196 547 l 1
 196 546 l 1
 628 546 l 1
 671 499 l 1
726 955 m 1
 754 924 l 1
 718 510 l 1
 691 510 l 1
 687 514 l 1
 631 575 l 1
 659 893 l 1
 726 955 l 1
EndSplineSet
EndChar

StartChar: Q
Encoding: 81 81 52
Width: 816
VWidth: 200
Flags: HW
LayerCount: 2
Fore
SplineSet
131 515 m 1
 127 510 l 1
 100 510 l 1
 136 924 l 1
 170 955 l 1
 226 893 l 1
 198 576 l 1
 131 515 l 1
185 969 m 1
 219 1000 l 1
 684 1000 l 1
 713 969 l 1
 645 907 l 1
 242 907 l 1
 185 969 l 1
671 499 m 1
 620 453 l 1
 620 454 l 1
 188 454 l 1
 188 453 l 1
 144 500 l 1
 196 547 l 1
 196 546 l 1
 628 546 l 1
 671 499 l 1
684 485 m 1
 689 489 l 1
 716 489 l 1
 680 76 l 1
 646 45 l 1
 590 107 l 1
 618 424 l 1
 684 485 l 1
726 955 m 1
 754 924 l 1
 718 510 l 1
 691 510 l 1
 687 514 l 1
 631 575 l 1
 659 893 l 1
 726 955 l 1
EndSplineSet
EndChar

StartChar: R
Encoding: 82 82 53
Width: 816
VWidth: 200
Flags: HW
LayerCount: 2
Fore
SplineSet
90 45 m 1
 62 76 l 1
 98 490 l 1
 125 490 l 1
 129 485 l 1
 185 424 l 1
 157 107 l 1
 90 45 l 1
671 499 m 1
 620 453 l 1
 620 454 l 1
 188 454 l 1
 188 453 l 1
 144 500 l 1
 196 547 l 1
 196 546 l 1
 628 546 l 1
 671 499 l 1
EndSplineSet
EndChar

StartChar: S
Encoding: 83 83 54
Width: 816
VWidth: 200
Flags: HW
LayerCount: 2
Fore
SplineSet
131 515 m 1
 127 510 l 1
 100 510 l 1
 136 924 l 1
 170 955 l 1
 226 893 l 1
 198 576 l 1
 131 515 l 1
671 499 m 1
 620 453 l 1
 620 454 l 1
 188 454 l 1
 188 453 l 1
 144 500 l 1
 196 547 l 1
 196 546 l 1
 628 546 l 1
 671 499 l 1
684 485 m 1
 689 489 l 1
 716 489 l 1
 680 76 l 1
 646 45 l 1
 590 107 l 1
 618 424 l 1
 684 485 l 1
631 31 m 1
 597 0 l 1
 132 0 l 1
 103 31 l 1
 171 93 l 1
 574 93 l 1
 631 31 l 1
EndSplineSet
EndChar

StartChar: T
Encoding: 84 84 55
Width: 816
VWidth: 200
Flags: HW
LayerCount: 2
Fore
SplineSet
90 45 m 1
 62 76 l 1
 98 490 l 1
 125 490 l 1
 129 485 l 1
 185 424 l 1
 157 107 l 1
 90 45 l 1
131 515 m 1
 127 510 l 1
 100 510 l 1
 136 924 l 1
 170 955 l 1
 226 893 l 1
 198 576 l 1
 131 515 l 1
671 499 m 1
 620 453 l 1
 620 454 l 1
 188 454 l 1
 188 453 l 1
 144 500 l 1
 196 547 l 1
 196 546 l 1
 628 546 l 1
 671 499 l 1
631 31 m 1
 597 0 l 1
 132 0 l 1
 103 31 l 1
 171 93 l 1
 574 93 l 1
 631 31 l 1
EndSplineSet
EndChar

StartChar: U
Encoding: 85 85 56
Width: 816
VWidth: 200
Flags: HW
LayerCount: 2
Fore
SplineSet
90 45 m 1
 62 76 l 1
 98 490 l 1
 125 490 l 1
 129 485 l 1
 185 424 l 1
 157 107 l 1
 90 45 l 1
684 485 m 1
 689 489 l 1
 716 489 l 1
 680 76 l 1
 646 45 l 1
 590 107 l 1
 618 424 l 1
 684 485 l 1
631 31 m 1
 597 0 l 1
 132 0 l 1
 103 31 l 1
 171 93 l 1
 574 93 l 1
 631 31 l 1
EndSplineSet
EndChar

StartChar: V
Encoding: 86 86 57
Width: 816
VWidth: 200
Flags: HW
LayerCount: 2
Fore
SplineSet
90 45 m 1
 62 76 l 1
 98 490 l 1
 125 490 l 1
 129 485 l 1
 185 424 l 1
 157 107 l 1
 90 45 l 1
131 515 m 1
 127 510 l 1
 100 510 l 1
 136 924 l 1
 170 955 l 1
 226 893 l 1
 198 576 l 1
 131 515 l 1
684 485 m 1
 689 489 l 1
 716 489 l 1
 680 76 l 1
 646 45 l 1
 590 107 l 1
 618 424 l 1
 684 485 l 1
726 955 m 1
 754 924 l 1
 718 510 l 1
 691 510 l 1
 687 514 l 1
 631 575 l 1
 659 893 l 1
 726 955 l 1
631 31 m 1
 597 0 l 1
 132 0 l 1
 103 31 l 1
 171 93 l 1
 574 93 l 1
 631 31 l 1
EndSplineSet
EndChar

StartChar: W
Encoding: 87 87 58
Width: 816
VWidth: 200
Flags: HW
LayerCount: 2
Fore
SplineSet
90 45 m 1
 62 76 l 1
 98 490 l 1
 125 490 l 1
 129 485 l 1
 185 424 l 1
 157 107 l 1
 90 45 l 1
131 515 m 1
 127 510 l 1
 100 510 l 1
 136 924 l 1
 170 955 l 1
 226 893 l 1
 198 576 l 1
 131 515 l 1
671 499 m 1
 620 453 l 1
 620 454 l 1
 188 454 l 1
 188 453 l 1
 144 500 l 1
 196 547 l 1
 196 546 l 1
 628 546 l 1
 671 499 l 1
684 485 m 1
 689 489 l 1
 716 489 l 1
 680 76 l 1
 646 45 l 1
 590 107 l 1
 618 424 l 1
 684 485 l 1
726 955 m 1
 754 924 l 1
 718 510 l 1
 691 510 l 1
 687 514 l 1
 631 575 l 1
 659 893 l 1
 726 955 l 1
631 31 m 1
 597 0 l 1
 132 0 l 1
 103 31 l 1
 171 93 l 1
 574 93 l 1
 631 31 l 1
EndSplineSet
EndChar

StartChar: X
Encoding: 88 88 59
Width: 816
VWidth: 200
Flags: HW
LayerCount: 2
Fore
SplineSet
90 45 m 1
 62 76 l 1
 98 490 l 1
 125 490 l 1
 129 485 l 1
 185 424 l 1
 157 107 l 1
 90 45 l 1
131 515 m 1
 127 510 l 1
 100 510 l 1
 136 924 l 1
 170 955 l 1
 226 893 l 1
 198 576 l 1
 131 515 l 1
671 499 m 1
 620 453 l 1
 620 454 l 1
 188 454 l 1
 188 453 l 1
 144 500 l 1
 196 547 l 1
 196 546 l 1
 628 546 l 1
 671 499 l 1
684 485 m 1
 689 489 l 1
 716 489 l 1
 680 76 l 1
 646 45 l 1
 590 107 l 1
 618 424 l 1
 684 485 l 1
726 955 m 1
 754 924 l 1
 718 510 l 1
 691 510 l 1
 687 514 l 1
 631 575 l 1
 659 893 l 1
 726 955 l 1
EndSplineSet
EndChar

StartChar: Y
Encoding: 89 89 60
Width: 816
VWidth: 200
Flags: HW
LayerCount: 2
Fore
SplineSet
131 515 m 1
 127 510 l 1
 100 510 l 1
 136 924 l 1
 170 955 l 1
 226 893 l 1
 198 576 l 1
 131 515 l 1
671 499 m 1
 620 453 l 1
 620 454 l 1
 188 454 l 1
 188 453 l 1
 144 500 l 1
 196 547 l 1
 196 546 l 1
 628 546 l 1
 671 499 l 1
684 485 m 1
 689 489 l 1
 716 489 l 1
 680 76 l 1
 646 45 l 1
 590 107 l 1
 618 424 l 1
 684 485 l 1
726 955 m 1
 754 924 l 1
 718 510 l 1
 691 510 l 1
 687 514 l 1
 631 575 l 1
 659 893 l 1
 726 955 l 1
631 31 m 1
 597 0 l 1
 132 0 l 1
 103 31 l 1
 171 93 l 1
 574 93 l 1
 631 31 l 1
EndSplineSet
EndChar

StartChar: Z
Encoding: 90 90 61
Width: 816
VWidth: 200
Flags: HW
LayerCount: 2
Fore
SplineSet
90 45 m 1
 62 76 l 1
 98 490 l 1
 125 490 l 1
 129 485 l 1
 185 424 l 1
 157 107 l 1
 90 45 l 1
185 969 m 1
 219 1000 l 1
 684 1000 l 1
 713 969 l 1
 645 907 l 1
 242 907 l 1
 185 969 l 1
726 955 m 1
 754 924 l 1
 718 510 l 1
 691 510 l 1
 687 514 l 1
 631 575 l 1
 659 893 l 1
 726 955 l 1
631 31 m 1
 597 0 l 1
 132 0 l 1
 103 31 l 1
 171 93 l 1
 574 93 l 1
 631 31 l 1
EndSplineSet
EndChar

StartChar: hyphen
Encoding: 45 45 62
Width: 816
VWidth: 200
Flags: HW
LayerCount: 2
Fore
SplineSet
671 499 m 1
 620 453 l 1
 620 454 l 1
 188 454 l 1
 188 453 l 1
 144 500 l 1
 196 547 l 1
 196 546 l 1
 628 546 l 1
 671 499 l 1
EndSplineSet
EndChar

StartChar: colon
Encoding: 58 58 63
Width: 200
VWidth: 0
Flags: HWO
LayerCount: 2
Fore
SplineSet
180 693 m 0
 179 684 177 676 173 669 c 0
 169 662 164 655 158 649 c 0
 152 643 146 639 138 636 c 0
 130 633 122 631 113 631 c 0
 104 631 97 633 90 636 c 0
 83 639 76 643 71 649 c 0
 66 655 62 662 60 669 c 0
 58 676 56 684 57 693 c 0
 58 702 60 710 64 717 c 0
 68 724 73 730 79 736 c 0
 85 742 92 747 100 750 c 0
 108 753 115 754 124 754 c 0
 133 754 141 753 148 750 c 0
 155 747 161 742 166 736 c 0
 171 730 176 724 178 717 c 0
 180 710 181 702 180 693 c 0
144 281 m 0
 143 272 141 264 137 257 c 0
 133 250 128 243 122 237 c 0
 116 231 110 227 102 224 c 0
 94 221 86 219 77 219 c 0
 68 219 61 221 54 224 c 0
 47 227 40 231 35 237 c 0
 30 243 25 250 23 257 c 0
 21 264 20 272 21 281 c 0
 22 290 24 298 28 305 c 0
 32 312 37 318 43 324 c 0
 49 330 55 335 63 338 c 0
 71 341 79 342 88 342 c 0
 97 342 105 341 112 338 c 0
 119 335 125 330 130 324 c 0
 135 318 140 312 142 305 c 0
 144 298 145 290 144 281 c 0
EndSplineSet
EndChar

StartChar: period
Encoding: 46 46 64
Width: -44
VWidth: 0
Flags: HW
LayerCount: 2
Fore
SplineSet
18 62 m 0
 18 53 16 45 13 38 c 0
 10 31 6 24 0 18 c 0
 -6 12 -13 8 -20 5 c 0
 -27 2 -35 0 -44 0 c 0
 -53 0 -61 2 -68 5 c 0
 -75 8 -82 12 -88 18 c 0
 -94 24 -98 31 -101 38 c 0
 -104 45 -106 53 -106 62 c 0
 -106 71 -104 79 -101 86 c 0
 -98 93 -94 100 -88 106 c 0
 -82 112 -75 116 -68 119 c 0
 -61 122 -53 124 -44 124 c 0
 -35 124 -27 122 -20 119 c 0
 -13 116 -6 112 0 106 c 0
 6 100 10 93 13 86 c 0
 16 79 18 71 18 62 c 0
EndSplineSet
EndChar

